<svg xmlns="http://www.w3.org/2000/svg" viewBox="0 0 32 32"><title>web url</title><g class="nc-icon-wrapper" stroke-linecap="square" stroke-linejoin="miter" stroke-width="2" fill="#111111" stroke="#111111"><path d="M18,12V11a2,2,0,0,1,2-2h9a2,2,0,0,1,2,2V21a2,2,0,0,1-2,2H20a2,2,0,0,1-2-2V20" fill="none" stroke="#111111" stroke-miterlimit="10"/> <path d="M14,12V11a2,2,0,0,0-2-2H3a2,2,0,0,0-2,2V21a2,2,0,0,0,2,2h9a2,2,0,0,0,2-2V20" fill="none" stroke="#111111" stroke-miterlimit="10"/> <line data-color="color-2" x1="10" y1="16" x2="22" y2="16" fill="none" stroke-miterlimit="10"/></g></svg>